<svg width="163" height="112" viewBox="0 0 163 112" fill="none" xmlns="http://www.w3.org/2000/svg">
<path d="M77.28 76.72L76.36 79.42H77.56C77.76 79.42 77.86 79.52 77.86 79.72V80.7C77.86 80.9 77.76 81 77.56 81H73.3C73.1 81 73 80.9 73 80.7V79.72C73 79.52 73.1 79.42 73.3 79.42H74.48L78.48 67.7C78.56 67.5133 78.6933 67.42 78.88 67.42H80.82C81.0067 67.42 81.14 67.5133 81.22 67.7L85.26 79.42H86.62C86.82 79.42 86.92 79.52 86.92 79.72V80.7C86.92 80.9 86.82 81 86.62 81H81.6C81.4 81 81.3 80.9 81.3 80.7V79.72C81.3 79.52 81.4 79.42 81.6 79.42H82.84L81.9 76.72H77.28ZM79.58 69.34L77.68 75.22H81.46L79.58 69.34ZM90.9258 72.82C91.1524 72.2867 91.5191 71.8333 92.0258 71.46C92.5324 71.0733 93.0858 70.88 93.6858 70.88C94.2858 70.88 94.7458 70.9333 95.0658 71.04C95.2258 71.0933 95.3058 71.2133 95.3058 71.4V74.1C95.3058 74.3 95.2058 74.4 95.0058 74.4H93.7058C93.5058 74.4 93.4124 74.3 93.4258 74.1L93.5058 72.94C93.4391 72.9267 93.3258 72.92 93.1658 72.92C92.5524 72.92 92.0458 73.1733 91.6458 73.68C91.2458 74.1733 91.0458 74.84 91.0458 75.68V79.42H93.2458C93.4458 79.42 93.5458 79.52 93.5458 79.72V80.7C93.5458 80.9 93.4458 81 93.2458 81H87.7458C87.5458 81 87.4458 80.9 87.4458 80.7V79.72C87.4458 79.52 87.5458 79.42 87.7458 79.42H88.8058V72.74H87.7258C87.5258 72.74 87.4258 72.64 87.4258 72.44V71.4C87.4258 71.2 87.5258 71.1 87.7258 71.1H90.3658C90.5524 71.1 90.6658 71.2 90.7058 71.4L90.9258 72.82ZM99.9292 72.74V77.78C99.9292 78.4067 100.009 78.86 100.169 79.14C100.329 79.42 100.629 79.56 101.069 79.56C101.509 79.56 101.936 79.4667 102.349 79.28C102.496 79.2267 102.603 79.28 102.669 79.44L103.029 80.36C103.043 80.4 103.049 80.46 103.049 80.54C103.049 80.6067 102.983 80.68 102.849 80.76C102.209 81.08 101.449 81.24 100.569 81.24C99.3826 81.24 98.6026 80.9333 98.2292 80.32C97.9626 79.92 97.8092 79.5333 97.7692 79.16C97.7159 78.6533 97.6892 78.12 97.6892 77.56V72.74H96.5492C96.3492 72.74 96.2492 72.64 96.2492 72.44V71.4C96.2492 71.2 96.3492 71.1 96.5492 71.1H97.6892V68.4C97.6892 68.2 97.7892 68.1 97.9892 68.1H99.6292C99.8292 68.1 99.9292 68.2 99.9292 68.4V71.1H101.949C102.149 71.1 102.249 71.2 102.249 71.4V72.44C102.249 72.64 102.149 72.74 101.949 72.74H99.9292ZM113.141 79.42H114.021C114.221 79.42 114.321 79.52 114.321 79.72V80.7C114.321 80.9 114.221 81 114.021 81H111.781C111.621 81 111.521 80.9 111.481 80.7L111.301 79.58C110.448 80.6867 109.328 81.24 107.941 81.24C105.781 81.24 104.701 80.1067 104.701 77.84V72.74H103.641C103.441 72.74 103.341 72.64 103.341 72.44V71.4C103.341 71.2 103.441 71.1 103.641 71.1H106.641C106.841 71.1 106.941 71.2 106.941 71.4V77.24C106.941 78.04 107.041 78.6133 107.241 78.96C107.455 79.2933 107.895 79.46 108.561 79.46C109.241 79.46 109.801 79.26 110.241 78.86C110.681 78.46 110.901 78.0067 110.901 77.5V72.74H109.641C109.441 72.74 109.341 72.64 109.341 72.44V71.4C109.341 71.2 109.441 71.1 109.641 71.1H112.841C113.041 71.1 113.141 71.2 113.141 71.4V79.42ZM118.914 72.82C119.141 72.2867 119.507 71.8333 120.014 71.46C120.521 71.0733 121.074 70.88 121.674 70.88C122.274 70.88 122.734 70.9333 123.054 71.04C123.214 71.0933 123.294 71.2133 123.294 71.4V74.1C123.294 74.3 123.194 74.4 122.994 74.4H121.694C121.494 74.4 121.401 74.3 121.414 74.1L121.494 72.94C121.427 72.9267 121.314 72.92 121.154 72.92C120.541 72.92 120.034 73.1733 119.634 73.68C119.234 74.1733 119.034 74.84 119.034 75.68V79.42H121.234C121.434 79.42 121.534 79.52 121.534 79.72V80.7C121.534 80.9 121.434 81 121.234 81H115.734C115.534 81 115.434 80.9 115.434 80.7V79.72C115.434 79.52 115.534 79.42 115.734 79.42H116.794V72.74H115.714C115.514 72.74 115.414 72.64 115.414 72.44V71.4C115.414 71.2 115.514 71.1 115.714 71.1H118.354C118.541 71.1 118.654 71.2 118.694 71.4L118.914 72.82ZM124.628 73.96C124.628 73.08 124.968 72.3467 125.648 71.76C126.328 71.1733 127.188 70.88 128.228 70.88C129.268 70.88 130.168 71 130.928 71.24C131.114 71.2933 131.208 71.4133 131.208 71.6V73.72C131.208 73.92 131.108 74.02 130.908 74.02H129.748C129.534 74.02 129.448 73.92 129.488 73.72L129.588 72.7C129.188 72.4867 128.748 72.38 128.268 72.38C127.201 72.38 126.668 72.7533 126.668 73.5C126.668 73.8867 126.841 74.1933 127.188 74.42C127.534 74.6467 127.954 74.8333 128.448 74.98C128.941 75.1133 129.434 75.2733 129.928 75.46C130.434 75.6333 130.861 75.94 131.208 76.38C131.554 76.8067 131.728 77.3533 131.728 78.02C131.728 79.0333 131.374 79.8267 130.668 80.4C129.961 80.96 128.968 81.24 127.688 81.24C126.794 81.24 125.854 81.1067 124.868 80.84C124.694 80.7867 124.608 80.66 124.608 80.46V78.34C124.608 78.14 124.708 78.04 124.908 78.04H126.068C126.268 78.04 126.361 78.14 126.348 78.34L126.288 79.38C126.648 79.6467 127.161 79.78 127.828 79.78C129.014 79.78 129.608 79.36 129.608 78.52C129.608 78.0933 129.434 77.76 129.088 77.52C128.754 77.2667 128.341 77.0733 127.848 76.94C127.368 76.8067 126.881 76.66 126.388 76.5C125.894 76.3267 125.474 76.0333 125.128 75.62C124.794 75.1933 124.628 74.64 124.628 73.96ZM73.8 106.7V105.72C73.8 105.52 73.9 105.42 74.1 105.42H75.14V95.02H74.1C73.9 95.02 73.8 94.92 73.8 94.72V93.72C73.8 93.52 73.9 93.42 74.1 93.42C75.8067 93.34 77.2267 93.3 78.36 93.3C81.8267 93.3 83.56 94.54 83.56 97.02C83.56 97.8867 83.34 98.6533 82.9 99.32C82.46 99.9733 81.8733 100.473 81.14 100.82L83.48 105.42H84.72C84.92 105.42 85.02 105.52 85.02 105.72V106.7C85.02 106.9 84.92 107 84.72 107H82.08C81.88 107 81.7333 106.913 81.64 106.74L78.92 101.36H78.52C78.0933 101.36 77.7133 101.34 77.38 101.3V105.42H78.64C78.84 105.42 78.94 105.52 78.94 105.72V106.7C78.94 106.9 78.84 107 78.64 107H74.1C73.9 107 73.8 106.9 73.8 106.7ZM77.38 94.96V99.78C77.4867 99.7933 77.64 99.8 77.84 99.8C78.92 99.8 79.76 99.5867 80.36 99.16C80.96 98.7333 81.26 98.0933 81.26 97.24C81.26 95.72 80.2067 94.96 78.1 94.96H77.38ZM90.6242 107.24C89.0376 107.24 87.8709 106.78 87.1242 105.86C86.3909 104.927 86.0242 103.7 86.0242 102.18C86.0242 100.647 86.4176 99.38 87.2042 98.38C87.9909 97.38 89.1242 96.88 90.6042 96.88C91.3376 96.88 91.9642 97.02 92.4842 97.3C93.0176 97.5667 93.4242 97.9333 93.7042 98.4C94.2376 99.3067 94.5042 100.353 94.5042 101.54C94.5042 102.1 94.4776 102.407 94.4242 102.46C94.3709 102.513 94.2709 102.54 94.1242 102.54H88.2442C88.3109 103.5 88.5442 104.247 88.9442 104.78C89.3576 105.3 90.0642 105.56 91.0642 105.56C91.7976 105.56 92.5509 105.387 93.3242 105.04C93.5109 104.947 93.6442 105 93.7242 105.2L94.1042 106.12C94.1709 106.28 94.1109 106.413 93.9242 106.52C93.0442 107 91.9442 107.24 90.6242 107.24ZM88.2442 101.06H92.4042C92.4309 99.3933 91.7776 98.56 90.4442 98.56C89.6576 98.56 89.0976 98.8133 88.7642 99.32C88.4442 99.8133 88.2709 100.393 88.2442 101.06ZM99.2294 105.42H100.489C100.689 105.42 100.789 105.52 100.789 105.72V106.7C100.789 106.9 100.689 107 100.489 107H95.7294C95.5294 107 95.4294 106.9 95.4294 106.7V105.72C95.4294 105.52 95.5294 105.42 95.7294 105.42C95.7294 105.42 96.1494 105.42 96.9894 105.42V98.74H95.9094C95.7094 98.74 95.6094 98.64 95.6094 98.44V97.4C95.6094 97.2 95.7094 97.1 95.9094 97.1H98.9294C99.1294 97.1 99.2294 97.2 99.2294 97.4V105.42ZM96.8094 95.32C96.556 95.0533 96.4294 94.7133 96.4294 94.3C96.4294 93.8867 96.556 93.5467 96.8094 93.28C97.076 93 97.4227 92.86 97.8494 92.86C98.2894 92.86 98.636 93 98.8894 93.28C99.156 93.5467 99.2894 93.8867 99.2894 94.3C99.2894 94.7133 99.156 95.0533 98.8894 95.32C98.6227 95.5867 98.2694 95.72 97.8294 95.72C97.4027 95.72 97.0627 95.5867 96.8094 95.32ZM102.108 99.96C102.108 99.08 102.448 98.3467 103.128 97.76C103.808 97.1733 104.668 96.88 105.708 96.88C106.748 96.88 107.648 97 108.408 97.24C108.595 97.2933 108.688 97.4133 108.688 97.6V99.72C108.688 99.92 108.588 100.02 108.388 100.02H107.228C107.015 100.02 106.928 99.92 106.968 99.72L107.068 98.7C106.668 98.4867 106.228 98.38 105.748 98.38C104.682 98.38 104.148 98.7533 104.148 99.5C104.148 99.8867 104.322 100.193 104.668 100.42C105.015 100.647 105.435 100.833 105.928 100.98C106.422 101.113 106.915 101.273 107.408 101.46C107.915 101.633 108.342 101.94 108.688 102.38C109.035 102.807 109.208 103.353 109.208 104.02C109.208 105.033 108.855 105.827 108.148 106.4C107.442 106.96 106.448 107.24 105.168 107.24C104.275 107.24 103.335 107.107 102.348 106.84C102.175 106.787 102.088 106.66 102.088 106.46V104.34C102.088 104.14 102.188 104.04 102.388 104.04H103.548C103.748 104.04 103.842 104.14 103.828 104.34L103.768 105.38C104.128 105.647 104.642 105.78 105.308 105.78C106.495 105.78 107.088 105.36 107.088 104.52C107.088 104.093 106.915 103.76 106.568 103.52C106.235 103.267 105.822 103.073 105.328 102.94C104.848 102.807 104.362 102.66 103.868 102.5C103.375 102.327 102.955 102.033 102.608 101.62C102.275 101.193 102.108 100.64 102.108 99.96ZM115.116 107.24C113.53 107.24 112.363 106.78 111.616 105.86C110.883 104.927 110.516 103.7 110.516 102.18C110.516 100.647 110.91 99.38 111.696 98.38C112.483 97.38 113.616 96.88 115.096 96.88C115.83 96.88 116.456 97.02 116.976 97.3C117.51 97.5667 117.916 97.9333 118.196 98.4C118.73 99.3067 118.996 100.353 118.996 101.54C118.996 102.1 118.97 102.407 118.916 102.46C118.863 102.513 118.763 102.54 118.616 102.54H112.736C112.803 103.5 113.036 104.247 113.436 104.78C113.85 105.3 114.556 105.56 115.556 105.56C116.29 105.56 117.043 105.387 117.816 105.04C118.003 104.947 118.136 105 118.216 105.2L118.596 106.12C118.663 106.28 118.603 106.413 118.416 106.52C117.536 107 116.436 107.24 115.116 107.24ZM112.736 101.06H116.896C116.923 99.3933 116.27 98.56 114.936 98.56C114.15 98.56 113.59 98.8133 113.256 99.32C112.936 99.8133 112.763 100.393 112.736 101.06ZM121.382 105.42V93.74H120.302C120.102 93.74 120.002 93.64 120.002 93.44V92.38C120.002 92.18 120.102 92.08 120.302 92.08H123.322C123.522 92.08 123.622 92.18 123.622 92.38V98.6C123.942 98.0667 124.368 97.6467 124.902 97.34C125.448 97.0333 126.035 96.88 126.662 96.88C127.888 96.88 128.848 97.2867 129.542 98.1C130.235 98.9133 130.582 100.187 130.582 101.92C130.582 103.64 130.182 104.96 129.382 105.88C128.595 106.787 127.555 107.24 126.262 107.24C125.528 107.24 124.888 107.113 124.342 106.86C123.808 106.593 123.422 106.267 123.182 105.88L123.062 106.7C123.048 106.9 122.948 107 122.762 107H120.322C120.122 107 120.022 106.9 120.022 106.7V105.72C120.022 105.52 120.122 105.42 120.322 105.42H121.382ZM123.622 100.96V104.5C123.782 104.74 124.088 104.973 124.542 105.2C125.008 105.427 125.462 105.54 125.902 105.54C127.515 105.54 128.322 104.4 128.322 102.12C128.322 100.467 127.948 99.4267 127.202 99C126.882 98.8133 126.442 98.72 125.882 98.72C125.322 98.72 124.802 98.9267 124.322 99.34C123.855 99.74 123.622 100.28 123.622 100.96ZM135.401 92.38V105.42H136.661C136.861 105.42 136.961 105.52 136.961 105.72V106.7C136.961 106.9 136.861 107 136.661 107H131.901C131.701 107 131.601 106.9 131.601 106.7V105.72C131.601 105.52 131.701 105.42 131.901 105.42H133.161V93.72H132.081C131.881 93.72 131.781 93.62 131.781 93.42V92.38C131.781 92.18 131.881 92.08 132.081 92.08H135.101C135.301 92.08 135.401 92.18 135.401 92.38ZM137.86 102.2C137.86 101.2 138.013 100.333 138.32 99.6C138.627 98.8667 139.027 98.3133 139.52 97.94C140.467 97.2333 141.493 96.88 142.6 96.88C143.413 96.88 144.1 97.0067 144.66 97.26C145.22 97.5133 145.653 97.8067 145.96 98.14C146.28 98.4733 146.547 98.9533 146.76 99.58C146.987 100.207 147.1 100.94 147.1 101.78C147.1 103.567 146.647 104.927 145.74 105.86C144.847 106.78 143.7 107.24 142.3 107.24C140.9 107.24 139.807 106.82 139.02 105.98C138.247 105.127 137.86 103.867 137.86 102.2ZM142.46 105.6C143.26 105.6 143.84 105.307 144.2 104.72C144.573 104.12 144.76 103.233 144.76 102.06C144.76 100.887 144.573 100.007 144.2 99.42C143.84 98.82 143.247 98.52 142.42 98.52C140.887 98.52 140.12 99.6 140.12 101.76C140.12 104.32 140.9 105.6 142.46 105.6ZM157.605 98.74V105.84C157.605 106.693 157.571 107.487 157.505 108.22C157.398 109.353 156.978 110.233 156.245 110.86C155.525 111.487 154.498 111.8 153.165 111.8C151.831 111.8 150.711 111.6 149.805 111.2C149.645 111.133 149.591 111 149.645 110.8L150.005 109.74C150.058 109.553 150.191 109.5 150.405 109.58C151.218 109.913 152.038 110.08 152.865 110.08C153.705 110.08 154.331 109.88 154.745 109.48C155.158 109.08 155.365 108.373 155.365 107.36V105.8C154.778 106.76 153.831 107.24 152.525 107.24C151.218 107.24 150.218 106.82 149.525 105.98C148.845 105.14 148.505 103.867 148.505 102.16C148.505 100.44 148.905 99.1333 149.705 98.24C150.518 97.3333 151.531 96.88 152.745 96.88C153.971 96.88 154.958 97.3133 155.705 98.18L155.905 97.4C155.971 97.2 156.091 97.1 156.265 97.1H158.705C158.905 97.1 159.005 97.2 159.005 97.4V98.44C159.005 98.64 158.905 98.74 158.705 98.74H157.605ZM155.365 103.26V99.7C155.311 99.62 155.225 99.52 155.105 99.4C154.998 99.28 154.751 99.1267 154.365 98.94C153.991 98.74 153.585 98.64 153.145 98.64C152.438 98.64 151.865 98.9067 151.425 99.44C150.985 99.96 150.765 100.8 150.765 101.96C150.765 103.12 150.925 104.007 151.245 104.62C151.565 105.22 152.185 105.52 153.105 105.52C153.691 105.52 154.211 105.313 154.665 104.9C155.131 104.487 155.365 103.94 155.365 103.26Z" fill="#2AC0EF"/>
<path d="M15.6493 107.951C0.0415471 107.931 0.017368 93.1203 0.0431488 72.0863C0.0689297 51.0523 12.2017 48.9721 30.6805 48.9947C-19.3328 -93.887 97.1069 133.254 25.4071 72.1174C25.3813 93.1514 100.376 108.054 15.6493 107.951Z" fill="#2AC0EF"/>
<path d="M10.0441 106.968C0.0271466 106.956 0.00997719 98.7976 0.0241781 87.2114C0.0383789 75.6252 7.82489 74.4807 19.6845 74.4953C-12.4297 -4.21396 62.326 120.915 16.3026 87.2314C16.2884 98.8175 64.4212 107.035 10.0441 106.968Z" fill="white"/>
</svg>
